<svg width="100" height="50" viewBox="0 0 100 50" fill="none" xmlns="http://www.w3.org/2000/svg">
<path fill-rule="evenodd" clip-rule="evenodd" d="M93.6494 31.5999H93.1893V50H85.2085V31.5999H84.7485L79.678 34.2057L74.6175 31.5999H74.1474V50H66.1766V31.5999H65.7166L60.6461 34.2057H57.2757L55.5256 24.3286C55.4255 23.9417 55.1322 23.7711 54.6455 23.8166H53.9554V50H46.0446V23.8166H45.3545C44.8678 23.7711 44.5745 23.9417 44.4744 24.3286L42.7243 34.2057H39.3539L34.2834 31.5999H33.8234V50H25.8526V31.5999H25.3825L20.312 34.2057L15.2515 31.5999H14.7815V50H6.81068V31.5999H6.35064L1.28013 34.2057L0 32.4306L6.62066 27.3555C7.41407 26.7789 8.64086 26.4679 10.301 26.4224L11.0411 26.411C12.8346 26.4338 14.1447 26.7486 14.9715 27.3555L20.312 31.452L25.6626 27.3555C26.4493 26.7789 27.6728 26.4679 29.3329 26.4224L30.073 26.411C31.8665 26.4338 33.18 26.7486 34.0134 27.3555L39.884 31.8503C40.6374 26.7751 41.4108 22.2804 42.2042 18.366C42.6909 16.7577 43.131 15.6805 43.5244 15.1343C44.2844 14.057 45.1245 13.5374 46.0446 13.5753H53.9554C54.8688 13.5374 55.7089 14.057 56.4756 15.1343C56.869 15.6805 57.3057 16.7577 57.7858 18.366C58.5859 22.2804 59.3593 26.7751 60.106 31.8503L65.9866 27.3555C66.82 26.7486 68.1301 26.4338 69.917 26.411L70.6571 26.4224C72.3172 26.4679 73.544 26.7789 74.3374 27.3555L79.678 31.452L85.0285 27.3555C85.8553 26.7486 87.1654 26.4338 88.9589 26.411L89.699 26.4224C91.3591 26.4679 92.5826 26.7789 93.3693 27.3555L100 32.4306L98.7199 34.2057L93.6494 31.5999ZM32.4632 23.7142C31.7898 24.4728 30.9764 24.8748 30.023 24.9203H29.653C28.6995 24.8748 27.8828 24.4728 27.2027 23.7142C26.4826 22.9252 26.1226 21.9618 26.1226 20.8239C26.1226 19.6935 26.4826 18.7301 27.2027 17.9335C27.8828 17.1825 28.6995 16.788 29.653 16.7501H30.023C30.9764 16.788 31.7898 17.1825 32.4632 17.9335C33.1833 18.7301 33.5434 19.6935 33.5434 20.8239C33.5434 21.9618 33.1833 22.9252 32.4632 23.7142ZM53.4353 9.13746C52.5419 10.1388 51.4718 10.6699 50.225 10.7305H49.775C48.5215 10.6699 47.4514 10.1388 46.5647 9.13746C45.6246 8.09816 45.1545 6.83887 45.1545 5.35958C45.1545 3.8727 45.6246 2.60203 46.5647 1.54756C47.4514 0.561372 48.5215 0.0455166 49.775 0H50.225C51.4718 0.0455166 52.5419 0.561372 53.4353 1.54756C54.3754 2.60203 54.8455 3.8727 54.8455 5.35958C54.8455 6.83887 54.3754 8.09816 53.4353 9.13746ZM73.8674 20.8239C73.8674 21.9618 73.5107 22.9252 72.7973 23.7142C72.1172 24.4728 71.3005 24.8748 70.347 24.9203H69.977C69.0236 24.8748 68.2068 24.4728 67.5268 23.7142C66.8133 22.9252 66.4566 21.9618 66.4566 20.8239C66.4566 19.6935 66.8133 18.7301 67.5268 17.9335C68.2068 17.1825 69.0236 16.788 69.977 16.7501H70.347C71.3005 16.788 72.1172 17.1825 72.7973 17.9335C73.5107 18.7301 73.8674 19.6935 73.8674 20.8239ZM89.3789 16.7501C90.339 16.788 91.1558 17.1825 91.8292 17.9335C92.5493 18.7301 92.9093 19.6935 92.9093 20.8239C92.9093 21.9618 92.5493 22.9252 91.8292 23.7142C91.1558 24.4728 90.339 24.8748 89.3789 24.9203H89.0189C88.0655 24.8748 87.2487 24.4728 86.5687 23.7142C85.8486 22.9252 85.4885 21.9618 85.4885 20.8239C85.4885 19.6935 85.8486 18.7301 86.5687 17.9335C87.2487 17.1825 88.0655 16.788 89.0189 16.7501H89.3789ZM13.4313 17.9335C14.1514 18.7301 14.5115 19.6935 14.5115 20.8239C14.5115 21.9618 14.1514 22.9252 13.4313 23.7142C12.7513 24.4728 11.9345 24.8748 10.9811 24.9203H10.6111C9.65763 24.8748 8.84088 24.4728 8.16082 23.7142C7.44741 22.9252 7.09071 21.9618 7.09071 20.8239C7.09071 19.6935 7.44741 18.7301 8.16082 17.9335C8.84088 17.1825 9.65763 16.788 10.6111 16.7501H10.9811C11.9345 16.788 12.7513 17.1825 13.4313 17.9335Z" fill="white"/>
</svg>
